<svg xmlns="http://www.w3.org/2000/svg" viewBox="0 0 208 44" fill="none">
  <!-- Icon -->
  <g transform="translate(0, 2) scale(0.48)" fill="white" stroke="white" stroke-width="3" stroke-linejoin="round" style="paint-order: stroke">
    <polygon points="1,0 20,18 0,30" />
    <polygon points="50,10 50,46 0,80 0,46" />
    <polygon points="100,10 100,46 50,80 50,46" />
  </g>
  <!-- Wordmark (Poppins Bold, paths) -->
  <g fill="white">
    <path transform="translate(56.00, 34) scale(0.034000, -0.034000)" d="M1028 702 845 0H638L526 462L410 0H203L25 702H208L309 191L434 702H622L742 191L844 702Z" />
    <path transform="translate(91.47, 34) scale(0.034000, -0.034000)" d="M617 326V0H447V303Q447 359 418.0 390.0Q389 421 340 421Q291 421 262.0 390.0Q233 359 233 303V0H62V740H233V483Q259 520 304.0 542.0Q349 564 405 564Q501 564 559.0 500.5Q617 437 617 326Z" />
    <path transform="translate(114.08, 34) scale(0.034000, -0.034000)" d="M46 708Q46 748 74.5 774.5Q103 801 148 801Q192 801 220.5 774.5Q249 748 249 708Q249 669 220.5 642.5Q192 616 148 616Q103 616 74.5 642.5Q46 669 46 708ZM233 558V0H62V558Z" />
    <path transform="translate(123.81, 34) scale(0.034000, -0.034000)" d="M32 183H201Q204 154 228.0 136.0Q252 118 287 118Q319 118 336.5 130.5Q354 143 354 163Q354 187 329.0 198.5Q304 210 248 224Q188 238 148.0 253.5Q108 269 79.0 302.5Q50 336 50 393Q50 441 76.5 480.5Q103 520 154.5 543.0Q206 566 277 566Q382 566 442.5 514.0Q503 462 512 376H354Q350 405 328.5 422.0Q307 439 272 439Q242 439 226.0 427.5Q210 416 210 396Q210 372 235.5 360.0Q261 348 315 336Q377 320 416.0 304.5Q455 289 484.5 254.5Q514 220 515 162Q515 113 487.5 74.5Q460 36 408.5 14.0Q357 -8 289 -8Q216 -8 159.0 17.0Q102 42 69.0 85.5Q36 129 32 183Z" />
    <path transform="translate(142.49, 34) scale(0.034000, -0.034000)" d="M405 566Q474 566 530.0 531.0Q586 496 618.5 431.0Q651 366 651 280Q651 194 618.5 128.5Q586 63 530.0 27.5Q474 -8 405 -8Q347 -8 302.5 16.0Q258 40 233 78V-266H62V558H233V479Q258 518 302.0 542.0Q346 566 405 566ZM354 417Q303 417 267.5 380.0Q232 343 232 279Q232 215 267.5 178.0Q303 141 354 141Q405 141 441.0 178.5Q477 216 477 280Q477 344 441.5 380.5Q406 417 354 417Z" />
    <path transform="translate(165.27, 34) scale(0.034000, -0.034000)" d="M585 238H198Q202 186 231.5 158.5Q261 131 304 131Q368 131 393 185H575Q561 130 524.5 86.0Q488 42 433.0 17.0Q378 -8 310 -8Q228 -8 164.0 27.0Q100 62 64.0 127.0Q28 192 28 279Q28 366 63.5 431.0Q99 496 163.0 531.0Q227 566 310 566Q391 566 454.0 532.0Q517 498 552.5 435.0Q588 372 588 288Q588 264 585 238ZM413 333Q413 377 383.0 403.0Q353 429 308 429Q265 429 235.5 404.0Q206 379 199 333Z" />
    <path transform="translate(185.92, 34) scale(0.034000, -0.034000)" d="M408 564V383H361Q297 383 265.0 355.5Q233 328 233 259V0H62V558H233V465Q263 511 308.0 537.5Q353 564 408 564Z" />
  </g>
</svg>